# xmcd
#
# Track frame offsets:
#	150
#	12899
#	26959
#	39541
#	53433
#	63209
#	76345
#	92638
#	102379
#	112752
#	129182
#	134814
#	149976
#	168546
#	178318
#	197875
#	211666
#
# Disc length: 3044 seconds
#
# Revision: 1
# Processed by: cddbd v1.5.1PL2 Copyright (c) Steve Scherf et al.
# Submitted via: audiograbber 1.83.01
#
DISCID=f10be211
DTITLE=Various Artist - ESP462-05
DYEAR=1900
DGENRE=Karaoke
TTITLE0=Traditional - Jingle Bells
TTITLE1=Traditional - Deck The Halls
TTITLE2=Traditional - Do You Hear What I Hear
TTITLE3=Helen Cornelius - The First Noel
TTITLE4=Kids - Frosty The Snowman
TTITLE5=Tony Orlando - Go Tell It On The Mountain
TTITLE6=Mickey Gilley - God Rest Ye Merry Gentlemen
TTITLE7=Traditional - All I Want For Christmas Is My Two Front Teeth
TTITLE8=Christmas - Carol of The Bells
TTITLE9=Tony Orlando - Away In A Manger
TTITLE10=Traditional - Christ Was Born On Christmas Day
TTITLE11=Marty Robbins - Hark! The Herald Angels Sing
TTITLE12=Crystal Gayle - Have Yourself A Merry Little Christmas
TTITLE13=Country - Here Comes Santa Claus
TTITLE14=Con Hunley - It Came Upon A Midnight Clear
TTITLE15=Traditional - Home For The Holidays
TTITLE16=Boxcar Willie - Auld Lang Syne
EXTD=
EXTT0=
EXTT1=
EXTT2=
EXTT3=
EXTT4=
EXTT5=
EXTT6=
EXTT7=
EXTT8=
EXTT9=
EXTT10=
EXTT11=
EXTT12=
EXTT13=
EXTT14=
EXTT15=
EXTT16=
PLAYORDER=
